<?xml version="1.0" encoding="utf-8"?>
<!-- Generator: Adobe Illustrator 16.0.0, SVG Export Plug-In . SVG Version: 6.00 Build 0)  -->
<!DOCTYPE svg PUBLIC "-//W3C//DTD SVG 1.1//EN" "http://www.w3.org/Graphics/SVG/1.1/DTD/svg11.dtd">
<svg version="1.1" id="Layer_1" xmlns="http://www.w3.org/2000/svg" xmlns:xlink="http://www.w3.org/1999/xlink" x="0px" y="0px"
	 width="438.4px" height="144px" viewBox="0 0 438.4 144" enable-background="new 0 0 438.4 144" xml:space="preserve">
<g>
	<path fill="#286029" d="M24.8,102h8.4V54l6.8-7.6v56h45.2V68H46.4l-1.2-1.2V56l1.2-0.4h44.8l3.2,2.8V120l-2,2.4H86l-0.8-0.801
		V115.2H8v8l-1.2,1.6h-6L0,123.2v-40l24.8-25.6V102z M7.2,102h10.4V76.8L7.2,88V102z M29.6,131.4c1.331,1.461,2,3.131,2,5
		c0,2.131-0.669,3.931-2,5.397c-1.337,1.463-3.069,2.2-5.2,2.2c-2.137,0-3.869-0.737-5.2-2.2c-1.338-1.469-2-3.271-2-5.397
		c0-1.869,0.662-3.539,2-5c1.331-1.469,3.063-2.2,5.2-2.2C26.531,129.2,28.263,129.932,29.6,131.4z M46.6,131.4
		c1.462,1.461,2.2,3.131,2.2,5c0,2.131-0.737,3.931-2.2,5.397c-1.469,1.463-3.269,2.2-5.4,2.2c-2.138,0-3.869-0.737-5.2-2.2
		c-1.337-1.469-2-3.271-2-5.397c0-1.869,0.663-3.539,2-5c1.331-1.469,3.063-2.2,5.2-2.2C43.331,129.2,45.131,129.932,46.6,131.4z
		 M107.6,45.2V101.6h5.6v-94L120,0v113.6l-0.8,1.2h-10.8v7.2l-3.6,4.4h-7.2l3.2-4.4V52L107.6,45.2z M133.2,13.6v114l-0.8,1.2h-4.8
		l-0.8-1.2V20.4L133.2,13.6z M174.4,102.8V86.4L199.2,60.8v42H244V71.2h-35.6l-0.4-0.8V60l0.4-0.8h42.4l2.4,3.2v62l-0.4,0.397
		h-7.199L244.399,124v-9.2H168v7.2l-2.4,2.4h-21.2L142,122V62l8.8,5.6v47.2h8.8V67.6L168,62v40.8H174.4z M160.2,51.2
		c1.462,1.6,2.2,3.331,2.2,5.2c0,2.131-0.737,3.931-2.2,5.4c-1.469,1.463-3.269,2.2-5.4,2.2c-1.869,0-3.537-0.737-5-2.2
		c-1.469-1.469-2.2-3.269-2.2-5.4c0-1.869,0.731-3.6,2.2-5.2c1.463-1.6,3.131-2.4,5-2.4C156.931,48.8,158.731,49.6,160.2,51.2z
		 M192,102.8V80l-10.8,11.2v11.6H192z M264.399,45.2V101.6H270v-94l7.2-7.6v113.6l-0.801,1.2H265.2v7.2l-4,4.4h-6.4l2.801-4.4V52
		L264.399,45.2z M291.2,14.4v113.2l-1.2,1.2h-4.399l-1.199-1.2V20.8L291.2,14.4z M341.6,0.4v112.4l-2,2.4H300l-0.8-1.2V52l3.6-3.6
		H316.4v58h5.6V8l7.2-7.6v106h5.6V7.6L341.6,0.4z M306,61.2V105.6h2.8V61.2H306z M355.2,16v111.6l-0.8,1.2H348.8l-1.2-1.2v-104
		L355.2,16z M362.8,82l24.8-25.6v44.4h6V80l6.803-6.4v27.2h5.197V70l7.603-7.2v38h5.2V60l6.8-7.2v48h5.6V50l7.603-7.2v68.8
		l-2.803,3.2h-66.399v12.8l-0.8,1.2H363.6l-0.8-1.2V82L362.8,82z M380.4,100.8V75.6L369.6,86.8v14H380.4z M427.8,123.8
		c1.463,1.464,2.2,3.263,2.2,5.4c0,2.131-0.737,3.862-2.2,5.2c-1.469,1.33-3.269,2-5.397,2c-1.869,0-3.603-0.67-5.2-2
		c-1.603-1.338-2.4-3.069-2.4-5.2c0-2.138,0.8-3.938,2.4-5.4c1.6-1.469,3.331-2.2,5.2-2.2
		C424.531,121.6,426.331,122.331,427.8,123.8z"/>
</g>
</svg>
