<?xml version="1.0" encoding="utf-8"?>
<!-- Generator: Adobe Illustrator 16.0.0, SVG Export Plug-In . SVG Version: 6.00 Build 0)  -->
<!DOCTYPE svg PUBLIC "-//W3C//DTD SVG 1.1//EN" "http://www.w3.org/Graphics/SVG/1.1/DTD/svg11.dtd">
<svg version="1.1" id="Capa_1" xmlns="http://www.w3.org/2000/svg" xmlns:xlink="http://www.w3.org/1999/xlink" x="0px" y="0px"
	 width="40.376px" height="28.116px" viewBox="-0.001 182.923 40.376 28.116" enable-background="new -0.001 182.923 40.376 28.116"
	 xml:space="preserve">
<g>
	<path fill="#286029" d="M40.3,196.055l-7.745-12.701c-0.13-0.214-0.396-0.304-0.628-0.212l-0.926,0.361l-0.13-0.214
		c-0.192-0.314-0.583-0.447-0.926-0.313l-9.758,3.802l-9.758-3.802c-0.344-0.134-0.734-0.002-0.926,0.313l-0.13,0.214l-0.926-0.361
		c-0.233-0.091-0.498-0.001-0.628,0.212l-7.745,12.702c-0.08,0.129-0.097,0.288-0.049,0.432c0.048,0.145,0.158,0.26,0.299,0.316
		l11.046,4.378l-1.44,9.262c-0.023,0.149,0.02,0.3,0.118,0.415s0.241,0.181,0.392,0.181h1.29c0.104,0,0.206-0.032,0.292-0.091
		l8.164-5.608l8.164,5.608c0.086,0.059,0.188,0.091,0.292,0.091h1.29c0.151,0,0.294-0.066,0.392-0.181s0.141-0.266,0.118-0.415
		l-1.439-9.262l11.045-4.378c0.142-0.056,0.251-0.172,0.299-0.316C40.397,196.343,40.379,196.185,40.3,196.055z M20.6,199.948
		v-6.609c0-0.229-0.185-0.413-0.413-0.413c-0.229,0-0.413,0.185-0.413,0.413v6.609l-15.018-5.952l5.714-9.371l9.44,3.678
		c0.178,0.069,0.375,0.069,0.552,0l9.44-3.678l5.714,9.371L20.6,199.948z"/>
	<path fill="#286029" d="M29.355,187.835c-0.083-0.213-0.323-0.318-0.535-0.235l-6.093,2.375c-0.213,0.083-0.318,0.323-0.234,0.535
		c0.063,0.163,0.219,0.263,0.385,0.263c0.05,0,0.101-0.009,0.15-0.028l6.093-2.375C29.333,188.287,29.438,188.047,29.355,187.835z"
		/>
	<path fill="#286029" d="M23.732,192.245c-0.213,0.083-0.318,0.323-0.235,0.535c0.063,0.163,0.22,0.263,0.385,0.263
		c0.05,0,0.101-0.009,0.15-0.028l6.093-2.375c0.212-0.083,0.318-0.323,0.235-0.535c-0.083-0.213-0.322-0.318-0.535-0.235
		L23.732,192.245z"/>
	<path fill="#286029" d="M24.583,195.26c0.063,0.163,0.22,0.263,0.385,0.263c0.05,0,0.1-0.009,0.15-0.028l6.092-2.375
		c0.213-0.083,0.318-0.323,0.235-0.535s-0.323-0.317-0.535-0.235l-6.092,2.375C24.604,194.808,24.5,195.048,24.583,195.26z"/>
	<path fill="#286029" d="M17.647,189.975l-6.093-2.375c-0.212-0.083-0.452,0.022-0.535,0.235c-0.083,0.212,0.022,0.452,0.234,0.535
		l6.093,2.375c0.049,0.019,0.1,0.028,0.149,0.028c0.166,0,0.321-0.1,0.385-0.263C17.965,190.297,17.86,190.058,17.647,189.975z"/>
	<path fill="#286029" d="M16.643,192.245l-6.093-2.375c-0.212-0.083-0.452,0.022-0.535,0.235c-0.083,0.212,0.022,0.452,0.234,0.535
		l6.093,2.375c0.049,0.019,0.1,0.028,0.15,0.028c0.166,0,0.321-0.1,0.385-0.263C16.96,192.568,16.855,192.328,16.643,192.245z"/>
	<path fill="#286029" d="M15.557,194.726l-6.092-2.375c-0.212-0.083-0.452,0.022-0.535,0.235c-0.083,0.213,0.022,0.452,0.235,0.535
		l6.093,2.375c0.049,0.02,0.1,0.028,0.15,0.028c0.165,0,0.321-0.1,0.385-0.263C15.875,195.048,15.77,194.808,15.557,194.726z"/>
</g>
</svg>
