<?xml version="1.0" encoding="utf-8"?>
<!-- Generator: Adobe Illustrator 16.0.0, SVG Export Plug-In . SVG Version: 6.00 Build 0)  -->
<!DOCTYPE svg PUBLIC "-//W3C//DTD SVG 1.1//EN" "http://www.w3.org/Graphics/SVG/1.1/DTD/svg11.dtd">
<svg version="1.1" id="Capa_1" xmlns="http://www.w3.org/2000/svg" xmlns:xlink="http://www.w3.org/1999/xlink" x="0px" y="0px"
	 width="40.375px" height="28.117px" viewBox="0 0 40.375 28.117" enable-background="new 0 0 40.375 28.117" xml:space="preserve">
<g>
	<path fill="#286029" d="M40.299,13.131L32.555,0.43c-0.131-0.214-0.396-0.304-0.629-0.212L31,0.58l-0.129-0.215
		c-0.192-0.313-0.584-0.447-0.927-0.313l-9.758,3.802l-9.758-3.802C10.085-0.083,9.695,0.05,9.503,0.365L9.374,0.58L8.447,0.218
		C8.214,0.126,7.95,0.217,7.819,0.43L0.075,13.132c-0.08,0.129-0.098,0.287-0.05,0.432c0.049,0.145,0.158,0.26,0.3,0.316
		l11.046,4.378L9.93,27.52c-0.022,0.149,0.021,0.3,0.118,0.415s0.241,0.182,0.392,0.182h1.29c0.104,0,0.206-0.033,0.292-0.092
		l8.164-5.607l8.164,5.607c0.086,0.059,0.188,0.092,0.292,0.092h1.29c0.15,0,0.294-0.066,0.393-0.182
		c0.098-0.115,0.141-0.266,0.117-0.415l-1.439-9.262l11.045-4.378c0.143-0.057,0.252-0.172,0.3-0.316
		C40.397,13.419,40.379,13.261,40.299,13.131z M20.6,17.025v-6.609c0-0.229-0.185-0.414-0.413-0.414s-0.413,0.186-0.413,0.414v6.609
		L4.756,11.072l5.714-9.371l9.44,3.678c0.178,0.07,0.375,0.07,0.552,0l9.439-3.678l5.714,9.371L20.6,17.025z"/>
	<path fill="#286029" d="M29.355,4.912c-0.083-0.213-0.323-0.318-0.535-0.235l-6.093,2.375c-0.213,0.083-0.318,0.323-0.234,0.534
		c0.063,0.164,0.219,0.264,0.385,0.264c0.051,0,0.102-0.009,0.15-0.027l6.094-2.375C29.333,5.363,29.438,5.123,29.355,4.912z"/>
	<path fill="#286029" d="M23.732,9.322c-0.213,0.082-0.317,0.322-0.235,0.535c0.063,0.162,0.221,0.262,0.385,0.262
		c0.051,0,0.102-0.008,0.15-0.027l6.094-2.375c0.211-0.083,0.317-0.323,0.234-0.535c-0.083-0.213-0.322-0.318-0.535-0.234
		L23.732,9.322z"/>
	<path fill="#286029" d="M24.583,12.335c0.063,0.164,0.221,0.264,0.385,0.264c0.051,0,0.101-0.009,0.15-0.027l6.092-2.375
		c0.213-0.084,0.318-0.324,0.235-0.535c-0.083-0.213-0.323-0.317-0.534-0.235l-6.093,2.375C24.604,11.884,24.5,12.125,24.583,12.335
		z"/>
	<path fill="#286029" d="M17.647,7.051l-6.093-2.375c-0.212-0.083-0.452,0.022-0.535,0.235c-0.083,0.211,0.022,0.451,0.234,0.535
		l6.093,2.375c0.049,0.019,0.1,0.027,0.149,0.027c0.166,0,0.32-0.1,0.385-0.264C17.965,7.373,17.86,7.134,17.647,7.051z"/>
	<path fill="#286029" d="M16.643,9.322L10.55,6.947c-0.212-0.084-0.452,0.021-0.535,0.234c-0.083,0.212,0.022,0.452,0.234,0.535
		l6.093,2.375c0.049,0.02,0.1,0.027,0.15,0.027c0.166,0,0.32-0.1,0.385-0.262C16.96,9.644,16.855,9.404,16.643,9.322z"/>
	<path fill="#286029" d="M15.557,11.802L9.465,9.427C9.253,9.344,9.013,9.449,8.93,9.662s0.022,0.453,0.235,0.535l6.093,2.375
		c0.049,0.021,0.1,0.028,0.15,0.028c0.165,0,0.32-0.101,0.385-0.263C15.875,12.125,15.77,11.884,15.557,11.802z"/>
</g>
</svg>
